<svg width="27" height="28" viewBox="0 0 27 28" fill="none" xmlns="http://www.w3.org/2000/svg">
<path d="M15.7327 21.0767H5.2438C4.54835 21.0767 3.88138 20.8004 3.38961 20.3086C2.89785 19.8169 2.62158 19.1499 2.62158 18.4544V6.65445C2.62158 5.95899 2.89785 5.29202 3.38961 4.80026C3.88138 4.3085 4.54835 4.03223 5.2438 4.03223H20.9771C21.6726 4.03223 22.3396 4.3085 22.8313 4.80026C23.3231 5.29202 23.5994 5.95899 23.5994 6.65445V18.4544C23.5994 19.1499 23.3231 19.8169 22.8313 20.3086C22.3396 20.8004 21.6726 21.0767 20.9771 21.0767H18.3549H18.2502C18.2605 21.2515 18.3384 20.8499 18.2761 21.0137C18.2139 21.1774 18.1176 21.3261 17.9938 21.45C17.8699 21.5738 17.7212 21.6701 17.5575 21.7323C17.3937 21.7946 17.2187 21.8214 17.0438 21.8111C16.8689 21.8214 16.6939 21.7946 16.5301 21.7323C16.3664 21.6701 16.2177 21.5738 16.0938 21.45C15.97 21.3261 15.8737 21.1774 15.8115 21.0137C15.7492 20.8499 15.7224 21.2515 15.7327 21.0767ZM5.2438 18.4544H20.9771V6.65445H5.2438V18.4544ZM9.17714 15.8322C9.00222 15.8427 8.82706 15.816 8.66322 15.7539C8.49938 15.6917 8.3506 15.5955 8.22669 15.4716C8.10278 15.3477 8.00656 15.1989 7.94439 15.035C7.88222 14.8712 7.85551 14.696 7.86603 14.5211C7.85551 14.3462 7.88222 14.171 7.94439 14.0072C8.00656 13.8434 8.10278 13.6946 8.22669 13.5707C8.3506 13.4468 8.49938 13.3505 8.66322 13.2884C8.82706 13.2262 9.00222 13.1995 9.17714 13.21H17.0438C17.2188 13.1993 17.394 13.2258 17.558 13.2879C17.7219 13.35 17.8708 13.4462 17.9947 13.5702C18.1187 13.6942 18.2149 13.843 18.277 14.007C18.3391 14.1709 18.3656 14.3461 18.3549 14.5211C18.3656 14.6961 18.3391 14.8713 18.277 15.0353C18.2149 15.1992 18.1187 15.3481 17.9947 15.472C17.8708 15.596 17.7219 15.6922 17.558 15.7543C17.394 15.8164 17.2188 15.843 17.0438 15.8322H9.17714ZM9.17714 11.8989C9.00222 11.9094 8.82706 11.8827 8.66322 11.8205C8.49938 11.7584 8.3506 11.6621 8.22669 11.5382C8.10278 11.4143 8.00656 11.2655 7.94439 11.1017C7.88222 10.9379 7.85551 10.7627 7.86603 10.5878C7.85572 10.4129 7.88258 10.2378 7.94482 10.0741C8.00707 9.91037 8.10329 9.76167 8.22716 9.6378C8.35102 9.51394 8.49972 9.41771 8.66346 9.35547C8.8272 9.29322 9.00227 9.26637 9.17714 9.27667H13.1105C13.2854 9.26616 13.4606 9.29287 13.6244 9.35504C13.7882 9.41721 13.937 9.51342 14.0609 9.63733C14.1848 9.76124 14.281 9.91003 14.3432 10.0739C14.4054 10.2377 14.4321 10.4129 14.4216 10.5878C14.4321 10.7627 14.4054 10.9379 14.3432 11.1017C14.281 11.2655 14.1848 11.4143 14.0609 11.5382C13.937 11.6621 13.7882 11.7584 13.6244 11.8205C13.4606 11.8827 13.2854 11.9094 13.1105 11.8989H9.17714Z" fill="white" fill-opacity="0.7"/>
</svg>
