<svg width="27" height="27" viewBox="0 0 27 27" fill="none" xmlns="http://www.w3.org/2000/svg">
<path d="M13.1113 24.9113C12.3356 24.8971 11.562 24.8243 10.7972 24.6936H10.7749L10.4891 24.649C10.1762 24.564 9.90164 24.3747 9.71092 24.1125C9.52019 23.8502 9.42469 23.5307 9.44022 23.2068L9.57133 21.6335L8.52244 21.109L7.47355 22.289C7.18949 22.5146 6.84088 22.6437 6.47842 22.6575C6.22267 22.6588 5.97368 22.5754 5.77042 22.4202C4.40256 21.3125 3.28536 19.9272 2.49264 18.3557C2.35401 18.0693 2.31743 17.7442 2.38897 17.4342C2.46051 17.1242 2.63587 16.8479 2.88597 16.6513L4.19708 15.7335L3.93355 14.6859L2.49133 14.4237C2.17401 14.3738 1.88352 14.2163 1.66865 13.9775C1.45377 13.7388 1.3276 13.4334 1.31133 13.1126C1.29861 11.3392 1.70281 9.5877 2.49133 7.99924C2.56994 7.77774 2.71529 7.58605 2.90736 7.45057C3.09943 7.31509 3.32877 7.24248 3.56382 7.24273C3.73568 7.24411 3.90568 7.27838 4.06466 7.34369L5.63799 7.86813L6.29355 6.95035L5.50688 5.50813C5.41539 5.39104 5.34915 5.25626 5.31237 5.11228C5.27559 4.96831 5.26905 4.81827 5.29317 4.67164C5.35219 4.37403 5.52237 4.11007 5.7691 3.93349C7.16007 2.85386 8.77147 2.09337 10.4891 1.70591C10.5754 1.68839 10.6633 1.6796 10.7513 1.67969C11.0224 1.68583 11.2868 1.76431 11.5174 1.907C11.7479 2.04969 11.9361 2.25141 12.0624 2.49127L12.5869 3.93349H13.7669L14.2913 2.49127C14.439 2.21186 14.6675 1.98343 14.9469 1.83571C14.9722 1.83513 14.9971 1.82896 15.0198 1.81762C15.0425 1.80629 15.0623 1.79008 15.078 1.77015C15.0936 1.75016 15.1135 1.7339 15.1361 1.72256C15.1588 1.71122 15.1838 1.70508 15.2091 1.7046H15.8647C17.5721 2.12203 19.1775 2.88017 20.5847 3.93349C20.8415 4.12768 21.0125 4.4143 21.0615 4.73253C21.1104 5.05075 21.0335 5.37553 20.8469 5.63793L20.0602 7.08015L20.7158 7.86682L22.158 7.34238C22.2934 7.28747 22.438 7.25899 22.5841 7.25847C22.8242 7.26618 23.0577 7.33908 23.2596 7.46934C23.4614 7.5996 23.6241 7.78232 23.73 7.99793C24.5185 9.58639 24.9227 11.3379 24.91 13.1113C24.91 13.459 24.7719 13.7925 24.526 14.0384C24.2801 14.2842 23.9466 14.4224 23.5989 14.4224H23.4678L22.1567 14.5535L21.8945 15.7335L23.2056 16.6513C23.4798 16.8285 23.6743 17.1056 23.7477 17.4238C23.8211 17.7419 23.7678 18.0762 23.5989 18.3557C22.8479 19.9537 21.7237 21.3477 20.3211 22.4202C20.0805 22.6008 19.7881 22.6992 19.4873 22.7007C19.3198 22.7066 19.1534 22.6723 19.0019 22.6007C18.8505 22.5291 18.7184 22.4222 18.6167 22.289L17.4367 21.109L16.3878 21.6335L16.5189 23.2068C16.5344 23.5307 16.4389 23.8502 16.2482 24.1125C16.0575 24.3747 15.7829 24.564 15.47 24.649C14.6946 24.8157 13.9044 24.9035 13.1113 24.9113ZM8.69813 18.3819C9.00545 18.3795 9.30753 18.4616 9.57133 18.6192L11.4069 19.537L11.538 19.6681C11.8228 19.882 12.054 20.1592 12.2133 20.4777C12.3725 20.7963 12.4556 21.1475 12.4558 21.5037L12.1936 22.2904H14.0291L13.898 21.5037V21.2415C13.9043 20.8895 14.0049 20.5457 14.1894 20.2458C14.3739 19.946 14.6355 19.7012 14.9469 19.537L16.7824 18.6192C16.853 18.5478 16.9452 18.5017 17.0447 18.4881C17.2474 18.4196 17.4599 18.3842 17.674 18.3832C18.1632 18.3959 18.6342 18.5712 19.0126 18.8815L19.6682 19.537C20.0928 19.0827 20.487 18.6009 20.8482 18.0948L20.1926 17.5704L20.0615 17.4392C19.8053 17.1861 19.6124 16.876 19.4985 16.5343C19.3846 16.1926 19.3529 15.8288 19.406 15.4726L19.9304 13.5059C19.9407 13.4054 19.9873 13.3122 20.0615 13.2437C20.181 12.9035 20.3903 12.6019 20.6673 12.3711C20.9443 12.1402 21.2787 11.9887 21.6349 11.9326L22.4215 11.8015C22.356 11.5392 22.2904 11.2403 22.2249 10.9492C22.1593 10.6582 22.0938 10.3592 22.0282 10.097L21.1104 10.4904H20.8482C20.7182 10.512 20.5866 10.523 20.4549 10.5231C20.1595 10.5212 19.8677 10.459 19.5971 10.3404C19.3266 10.2218 19.0831 10.0494 18.8815 9.83349L17.5704 8.26015L17.4393 8.12904C17.2443 7.81395 17.1409 7.45072 17.1409 7.08015C17.1409 6.70959 17.2443 6.34636 17.4393 6.03127L17.8326 5.2446L16.6526 4.6546L16.2593 4.45793L15.9971 5.2446C15.9971 5.27937 15.9833 5.31272 15.9587 5.33731C15.9341 5.3619 15.9007 5.37571 15.866 5.37571C15.7217 5.71287 15.4852 6.00248 15.1837 6.21122C14.8822 6.41996 14.5279 6.53937 14.1615 6.55571H11.8002C11.445 6.49706 11.1118 6.34461 10.8352 6.11412C10.5587 5.88362 10.3486 5.58344 10.2269 5.2446L9.96466 4.45793C9.79028 4.54447 9.59886 4.63362 9.41399 4.72015C9.06119 4.87069 8.71945 5.04594 8.39133 5.2446L8.78466 6.03127C8.85618 6.10175 8.90229 6.19398 8.91577 6.29349C9.03855 6.61734 9.07887 6.96664 9.0331 7.30995C8.98732 7.65325 8.85689 7.97979 8.65355 8.26015L7.34244 9.83349L7.21133 9.9646C6.78015 10.3411 6.23572 10.563 5.66422 10.5952C5.47582 10.5966 5.2889 10.5619 5.11355 10.493L4.45799 10.2308C4.20393 10.7633 4.06967 11.3451 4.06466 11.9352L4.85133 12.0663H5.11355C5.46068 12.1554 5.77757 12.336 6.03122 12.5892C6.28487 12.8424 6.46601 13.1589 6.55577 13.5059L7.08022 15.4726V15.7348C7.10986 16.0954 7.03996 16.4573 6.87813 16.781C6.7163 17.1046 6.46874 17.3777 6.16244 17.5704L5.50688 18.0948C5.81791 18.6374 6.21664 19.1247 6.68688 19.537L7.34244 18.8815L7.47355 18.7504C7.84114 18.5196 8.26421 18.3923 8.69813 18.3819ZM13.1113 17.0459C12.5916 17.0577 12.0748 16.9641 11.5922 16.7706C11.1097 16.5771 10.6713 16.2878 10.3037 15.9202C9.93607 15.5526 9.64678 15.1142 9.4533 14.6317C9.25982 14.1491 9.16616 13.6323 9.17799 13.1126C9.16616 12.5928 9.25982 12.076 9.4533 11.5935C9.64678 11.1109 9.93607 10.6726 10.3037 10.3049C10.6713 9.93732 11.1097 9.64803 11.5922 9.45455C12.0748 9.26107 12.5916 9.16741 13.1113 9.17924C13.6311 9.16741 14.1479 9.26107 14.6304 9.45455C15.113 9.64803 15.5513 9.93732 15.919 10.3049C16.2866 10.6726 16.5759 11.1109 16.7694 11.5935C16.9628 12.076 17.0565 12.5928 17.0447 13.1126C17.0565 13.6323 16.9628 14.1491 16.7694 14.6317C16.5759 15.1142 16.2866 15.5526 15.919 15.9202C15.5513 16.2878 15.113 16.5771 14.6304 16.7706C14.1479 16.9641 13.6311 17.0577 13.1113 17.0459ZM13.1113 11.8015C12.9365 11.7914 12.7615 11.8184 12.5979 11.8807C12.4342 11.943 12.2856 12.0392 12.1618 12.1631C12.038 12.2869 11.9418 12.4355 11.8794 12.5991C11.8171 12.7628 11.7901 12.9378 11.8002 13.1126C11.7901 13.2874 11.8171 13.4624 11.8794 13.626C11.9418 13.7897 12.038 13.9383 12.1618 14.0621C12.2856 14.1859 12.4342 14.2821 12.5979 14.3445C12.7615 14.4068 12.9365 14.4338 13.1113 14.4237C13.2861 14.4338 13.4611 14.4068 13.6248 14.3445C13.7884 14.2821 13.937 14.1859 14.0608 14.0621C14.1847 13.9383 14.2809 13.7897 14.3432 13.626C14.4055 13.4624 14.4325 13.2874 14.4224 13.1126C14.4327 12.9377 14.4059 12.7625 14.3436 12.5987C14.2814 12.4349 14.1852 12.2862 14.0614 12.1622C13.9375 12.0382 13.7888 11.9419 13.6251 11.8795C13.4614 11.8171 13.2863 11.79 13.1113 11.8002V11.8015Z" fill="white" fill-opacity="0.7"/>
</svg>
