<svg width="27" height="26" viewBox="0 0 27 26" fill="none" xmlns="http://www.w3.org/2000/svg">
<path d="M3.66663 4.0624L6.99996 3.66223C6.99996 3.66223 6.04758 6.06326 6.04758 9.26463C6.04758 12.466 6.99996 14.4669 6.99996 14.4669H3.66663V4.0624Z" fill="#E5D0D0"/>
<path d="M23.7784 2.51774L23.7783 2.51772C22.9809 2.3871 22.1734 2.31986 21.3642 2.31669C18.6034 2.31458 15.9006 3.06749 13.5781 4.48499L13.5006 4.53232L13.4228 4.48554C11.0942 3.08659 8.39181 2.35216 5.63641 2.37011L5.63602 2.37011C4.82675 2.37327 4.01918 2.44051 3.22169 2.57114L23.7784 2.51774ZM23.7784 2.51774C23.999 2.5537 24.1987 2.6601 24.345 2.81764C24.4903 2.97417 24.5744 3.17178 24.5851 3.37777L24.5851 16.1951L24.5851 16.1974C24.5872 16.3311 24.5582 16.4639 24.5 16.5863C24.4418 16.7088 24.3556 16.8182 24.2471 16.9064C24.1385 16.9947 24.0103 17.0595 23.8714 17.0958C23.7326 17.1321 23.5869 17.1388 23.4449 17.1155L23.4434 17.1152C21.8063 16.8639 20.1328 16.9276 18.5219 17.3026C16.9139 17.6771 15.4006 18.3543 14.0717 19.2945L13.978 19.3465H13.8932H13.8646L13.838 19.3571C13.7311 19.3994 13.6162 19.4213 13.5 19.4213C13.3838 19.4213 13.2689 19.3994 13.162 19.3571L13.1354 19.3465H13.1068H13.022L12.9274 19.2941L23.7784 2.51774ZM2.41492 3.49154H2.41491V16.3126V16.3149L2.41489 16.3149C2.41284 16.4486 2.44179 16.5814 2.49998 16.7038C2.55819 16.8263 2.64438 16.9357 2.75294 17.024C2.86152 17.1122 2.98972 17.177 3.12856 17.2133C3.26738 17.2496 3.41304 17.2563 3.55504 17.233C3.55507 17.233 3.55509 17.233 3.55512 17.233L3.57941 17.381C5.18942 17.1159 6.83894 17.1599 8.4308 17.5104L2.41492 3.49154ZM2.41492 3.49154L2.41489 3.48924M2.41492 3.49154L2.41489 3.48924M2.41489 3.48924C2.41158 3.27263 2.48962 3.06088 2.63679 2.89227C2.78411 2.72347 2.99125 2.60892 3.22167 2.57114L2.41489 3.48924ZM23.7802 19.6128L23.7783 19.6125C22.9808 19.4819 22.1733 19.4146 21.364 19.4115C18.6032 19.4094 15.9005 20.1623 13.5781 21.5798L13.5 21.6275L13.4219 21.5798C11.0995 20.1623 8.3968 19.4094 5.63602 19.4115C4.82675 19.4146 4.01917 19.4819 3.22167 19.6125L3.21981 19.6128C3.09214 19.632 2.97006 19.6751 2.86057 19.7391C2.75109 19.8032 2.65651 19.8869 2.58198 19.9851C2.50746 20.0833 2.4544 20.1941 2.42546 20.311C2.39673 20.4272 2.39227 20.5475 2.41231 20.6652C2.46144 20.9007 2.60686 21.1105 2.81984 21.2472C3.03375 21.3846 3.29734 21.4362 3.55246 21.3896L3.55504 21.3892L3.55504 21.3892C5.18383 21.121 6.85257 21.1655 8.46305 21.5201C10.0734 21.8746 11.5933 22.5321 12.9331 23.4541M23.7802 19.6128L12.8484 23.5779M23.7802 19.6128C23.9079 19.632 24.0299 19.6751 24.1394 19.7391C24.2489 19.8032 24.3435 19.8869 24.418 19.9851C24.4925 20.0833 24.5456 20.1941 24.5745 20.311C24.6033 20.4272 24.6077 20.5475 24.5877 20.6653C24.5386 20.9007 24.3931 21.1105 24.1802 21.2472C23.9662 21.3846 23.7027 21.4362 23.4475 21.3896L23.445 21.3892C21.8162 21.121 20.1474 21.1655 18.5369 21.5201C16.9266 21.8746 15.4068 22.532 14.0671 23.454M23.7802 19.6128L14.1516 23.5779M12.9331 23.4541C12.9332 23.4542 12.9333 23.4542 12.9334 23.4543L12.8484 23.5779M12.9331 23.4541C12.9329 23.454 12.9327 23.4538 12.9325 23.4537L12.8484 23.5779M12.9331 23.4541C13.098 23.5656 13.2961 23.626 13.5 23.626C13.7039 23.626 13.9021 23.5655 14.0671 23.454M12.8484 23.5779C13.0386 23.7067 13.2664 23.776 13.5 23.776C13.7336 23.776 13.9614 23.7067 14.1516 23.5779M14.0671 23.454C14.0669 23.4541 14.0668 23.4542 14.0666 23.4543L14.1516 23.5779M14.0671 23.454C14.0672 23.4539 14.0674 23.4538 14.0675 23.4537L14.1516 23.5779M12.3094 16.7032L12.5265 16.8118V16.569V6.2267V6.14381L12.4563 6.0997C10.4335 4.82834 8.06274 4.15177 5.63946 4.15353C5.26119 4.13295 4.88198 4.13303 4.50372 4.15376L4.36193 4.16153V4.30354V14.9878V15.1378H4.51193H4.51416H4.5164H4.51864H4.52088H4.52311H4.52535H4.52759H4.52982H4.53206H4.5343H4.53653H4.53877H4.541H4.54324H4.54547H4.5477H4.54994H4.55217H4.55441H4.55664H4.55887H4.56111H4.56334H4.56557H4.5678H4.57003H4.57227H4.5745H4.57673H4.57896H4.58119H4.58342H4.58565H4.58788H4.59011H4.59234H4.59457H4.5968H4.59903H4.60125H4.60348H4.60571H4.60794H4.61017H4.61239H4.61462H4.61685H4.61907H4.6213H4.62353H4.62575H4.62798H4.6302H4.63243H4.63465H4.63688H4.6391H4.64133H4.64355H4.64578H4.648H4.65022H4.65245H4.65467H4.65689H4.65911H4.66134H4.66356H4.66578H4.668H4.67022H4.67244H4.67466H4.67689H4.67911H4.68133H4.68355H4.68577H4.68799H4.6902H4.69242H4.69464H4.69686H4.69908H4.7013H4.70352H4.70573H4.70795H4.71017H4.71239H4.7146H4.71682H4.71904H4.72125H4.72347H4.72569H4.7279H4.73012H4.73233H4.73455H4.73676H4.73898H4.74119H4.74341H4.74562H4.74783H4.75005H4.75226H4.75447H4.75669H4.7589H4.76111H4.76333H4.76554H4.76775H4.76996H4.77217H4.77439H4.7766H4.77881H4.78102H4.78323H4.78544H4.78765H4.78986H4.79207H4.79428H4.79649H4.7987H4.80091H4.80312H4.80533H4.80753H4.80974H4.81195H4.81416H4.81637H4.81857H4.82078H4.82299H4.8252H4.8274H4.82961H4.83182H4.83402H4.83623H4.83843H4.84064H4.84285H4.84505H4.84726H4.84946H4.85167H4.85387H4.85608H4.85828H4.86048H4.86269H4.86489H4.8671H4.8693H4.8715H4.87371H4.87591H4.87811H4.88031H4.88252H4.88472H4.88692H4.88912H4.89132H4.89353H4.89573H4.89793H4.90013H4.90233H4.90453H4.90673H4.90893H4.91113H4.91333H4.91553H4.91773H4.91993H4.92213H4.92433H4.92653H4.92873H4.93093H4.93312H4.93532H4.93752H4.93972H4.94192H4.94411H4.94631H4.94851H4.95071H4.9529H4.9551H4.9573H4.95949H4.96169H4.96389H4.96608H4.96828H4.97047H4.97267H4.97487H4.97706H4.97926H4.98145H4.98365H4.98584H4.98804H4.99023H4.99242H4.99462H4.99681H4.99901H5.0012H5.00339H5.00559H5.00778H5.00997H5.01217H5.01436H5.01655H5.01875H5.02094H5.02313H5.02532H5.02751H5.02971H5.0319H5.03409H5.03628H5.03847H5.04066H5.04285H5.04505H5.04724H5.04943H5.05162H5.05381H5.056H5.05819H5.06038H5.06257H5.06476H5.06695H5.06914H5.07133H5.07352H5.0757H5.07789H5.08008H5.08227H5.08446H5.08665H5.08884H5.09102H5.09321H5.0954H5.09759H5.09978H5.10196H5.10415H5.10634H5.10853H5.11071H5.1129H5.11509H5.11727H5.11946H5.12165H5.12383H5.12602H5.1282H5.13039H5.13258H5.13476H5.13695H5.13913H5.14132H5.1435H5.14569H5.14787H5.15006H5.15224H5.15443H5.15661H5.1588H5.16098H5.16317H5.16535H5.16753H5.16972H5.1719H5.17409H5.17627H5.17845H5.18064H5.18282H5.185H5.18719H5.18937H5.19155H5.19374H5.19592H5.1981H5.20028H5.20247H5.20465H5.20683H5.20901H5.21119H5.21338H5.21556H5.21774H5.21992H5.2221H5.22428H5.22647H5.22865H5.23083H5.23301H5.23519H5.23737H5.23955H5.24173H5.24391H5.24609H5.24827H5.25045H5.25263H5.25481H5.25699H5.25917H5.26135H5.26353H5.26571H5.26789H5.27007H5.27225H5.27443H5.27661H5.27879H5.28097H5.28315H5.28533H5.28751H5.28969H5.29186H5.29404H5.29622H5.2984H5.30058H5.30276H5.30493H5.30711H5.30929H5.31147H5.31365H5.31582H5.318H5.32018H5.32236H5.32454H5.32671H5.32889H5.33107H5.33325H5.33542H5.3376H5.33978H5.34195H5.34413H5.34631H5.34848H5.35066H5.35284H5.35501H5.35719H5.35937H5.36154H5.36372H5.3659H5.36807H5.37025H5.37242H5.3746H5.37678H5.37895H5.38113H5.3833H5.38548H5.38766H5.38983H5.39201H5.39418H5.39636H5.39853H5.40071H5.40288H5.40506H5.40723H5.40941H5.41159H5.41376H5.41594H5.41811H5.42028H5.42246H5.42463H5.42681H5.42898H5.43116H5.43333H5.43551H5.43768H5.43986H5.44203H5.44421H5.44638H5.44855H5.45073H5.4529H5.45508H5.45725H5.45943H5.4616H5.46377H5.46595H5.46812H5.47029H5.47247H5.47464H5.47682H5.47899H5.48116H5.48334H5.48551H5.48768H5.48986H5.49203H5.49421H5.49638H5.49855H5.50073H5.5029H5.50507H5.50725H5.50942H5.51159H5.51377H5.51594H5.51811H5.52028H5.52246H5.52463H5.5268H5.52898H5.53115H5.53332H5.5355H5.53767H5.53984H5.54201H5.54419H5.54636H5.54853H5.55071H5.55288H5.55505H5.55722H5.5594H5.56157H5.56374H5.56591H5.56809H5.57026H5.57243H5.57461H5.57678H5.57895H5.58112H5.5833H5.58547H5.58764H5.58981H5.59199H5.59416H5.59633H5.5985H5.60068H5.60285H5.60502H5.60719H5.60937H5.61154H5.61371H5.61588H5.61806H5.62023H5.6224H5.62457H5.62675H5.62892H5.63109H5.63326H5.63543H5.63552C7.96117 15.1364 10.2518 15.6738 12.3094 16.7032ZM22.4881 15.1805H22.6381V15.0305V4.30354V4.16153L22.4963 4.15376C22.118 4.13303 21.7388 4.13295 21.3605 4.15353C18.9373 4.15177 16.5665 4.82834 14.5437 6.0997L14.4735 6.14381V6.2267V16.6118V16.8545L14.6906 16.7459C16.7482 15.7166 19.0388 15.1791 21.3645 15.1805H21.3646H21.3667H21.3689H21.3711H21.3733H21.3754H21.3776H21.3798H21.3819H21.3841H21.3863H21.3885H21.3906H21.3928H21.395H21.3972H21.3993H21.4015H21.4037H21.4058H21.408H21.4102H21.4124H21.4145H21.4167H21.4189H21.421H21.4232H21.4254H21.4276H21.4297H21.4319H21.4341H21.4363H21.4384H21.4406H21.4428H21.4449H21.4471H21.4493H21.4515H21.4536H21.4558H21.458H21.4602H21.4623H21.4645H21.4667H21.4688H21.471H21.4732H21.4754H21.4775H21.4797H21.4819H21.4841H21.4862H21.4884H21.4906H21.4928H21.4949H21.4971H21.4993H21.5014H21.5036H21.5058H21.508H21.5101H21.5123H21.5145H21.5167H21.5188H21.521H21.5232H21.5254H21.5275H21.5297H21.5319H21.5341H21.5362H21.5384H21.5406H21.5427H21.5449H21.5471H21.5493H21.5514H21.5536H21.5558H21.558H21.5601H21.5623H21.5645H21.5667H21.5688H21.571H21.5732H21.5754H21.5775H21.5797H21.5819H21.5841H21.5862H21.5884H21.5906H21.5928H21.5949H21.5971H21.5993H21.6015H21.6036H21.6058H21.608H21.6102H21.6123H21.6145H21.6167H21.6189H21.621H21.6232H21.6254H21.6276H21.6298H21.6319H21.6341H21.6363H21.6385H21.6406H21.6428H21.645H21.6472H21.6493H21.6515H21.6537H21.6559H21.658H21.6602H21.6624H21.6646H21.6668H21.6689H21.6711H21.6733H21.6755H21.6776H21.6798H21.682H21.6842H21.6864H21.6885H21.6907H21.6929H21.6951H21.6972H21.6994H21.7016H21.7038H21.706H21.7081H21.7103H21.7125H21.7147H21.7169H21.719H21.7212H21.7234H21.7256H21.7277H21.7299H21.7321H21.7343H21.7365H21.7386H21.7408H21.743H21.7452H21.7474H21.7495H21.7517H21.7539H21.7561H21.7583H21.7604H21.7626H21.7648H21.767H21.7692H21.7714H21.7735H21.7757H21.7779H21.7801H21.7823H21.7844H21.7866H21.7888H21.791H21.7932H21.7954H21.7975H21.7997H21.8019H21.8041H21.8063H21.8084H21.8106H21.8128H21.815H21.8172H21.8194H21.8215H21.8237H21.8259H21.8281H21.8303H21.8325H21.8346H21.8368H21.839H21.8412H21.8434H21.8456H21.8478H21.8499H21.8521H21.8543H21.8565H21.8587H21.8609H21.8631H21.8652H21.8674H21.8696H21.8718H21.874H21.8762H21.8784H21.8805H21.8827H21.8849H21.8871H21.8893H21.8915H21.8937H21.8958H21.898H21.9002H21.9024H21.9046H21.9068H21.909H21.9112H21.9134H21.9155H21.9177H21.9199H21.9221H21.9243H21.9265H21.9287H21.9309H21.9331H21.9352H21.9374H21.9396H21.9418H21.944H21.9462H21.9484H21.9506H21.9528H21.955H21.9571H21.9593H21.9615H21.9637H21.9659H21.9681H21.9703H21.9725H21.9747H21.9769H21.9791H21.9813H21.9834H21.9856H21.9878H21.99H21.9922H21.9944H21.9966H21.9988H22.001H22.0032H22.0054H22.0076H22.0098H22.012H22.0142H22.0164H22.0185H22.0207H22.0229H22.0251H22.0273H22.0295H22.0317H22.0339H22.0361H22.0383H22.0405H22.0427H22.0449H22.0471H22.0493H22.0515H22.0537H22.0559H22.0581H22.0603H22.0625H22.0647H22.0669H22.0691H22.0713H22.0735H22.0757H22.0779H22.0801H22.0823H22.0845H22.0867H22.0889H22.0911H22.0933H22.0955H22.0977H22.0999H22.1021H22.1043H22.1065H22.1087H22.1109H22.1131H22.1153H22.1175H22.1197H22.1219H22.1241H22.1263H22.1285H22.1307H22.1329H22.1351H22.1373H22.1395H22.1417H22.1439H22.1461H22.1483H22.1505H22.1527H22.1549H22.1572H22.1594H22.1616H22.1638H22.166H22.1682H22.1704H22.1726H22.1748H22.177H22.1792H22.1814H22.1836H22.1858H22.188H22.1903H22.1925H22.1947H22.1969H22.1991H22.2013H22.2035H22.2057H22.2079H22.2101H22.2123H22.2146H22.2168H22.219H22.2212H22.2234H22.2256H22.2278H22.23H22.2322H22.2345H22.2367H22.2389H22.2411H22.2433H22.2455H22.2477H22.25H22.2522H22.2544H22.2566H22.2588H22.261H22.2632H22.2655H22.2677H22.2699H22.2721H22.2743H22.2765H22.2787H22.281H22.2832H22.2854H22.2876H22.2898H22.292H22.2943H22.2965H22.2987H22.3009H22.3031H22.3054H22.3076H22.3098H22.312H22.3142H22.3165H22.3187H22.3209H22.3231H22.3253H22.3276H22.3298H22.332H22.3342H22.3364H22.3387H22.3409H22.3431H22.3453H22.3476H22.3498H22.352H22.3542H22.3564H22.3587H22.3609H22.3631H22.3653H22.3676H22.3698H22.372H22.3742H22.3765H22.3787H22.3809H22.3832H22.3854H22.3876H22.3898H22.3921H22.3943H22.3965H22.3987H22.401H22.4032H22.4054H22.4077H22.4099H22.4121H22.4143H22.4166H22.4188H22.421H22.4233H22.4255H22.4277H22.43H22.4322H22.4344H22.4367H22.4389H22.4411H22.4434H22.4456H22.4478H22.4501H22.4523H22.4545H22.4568H22.459H22.4612H22.4635H22.4657H22.4679H22.4702H22.4724H22.4746H22.4769H22.4791H22.4814H22.4836H22.4858H22.4881ZM22.3381 15.0305H21.3646L22.4881 4.30354V14.8805V15.0305H22.3381Z" fill="#BB2828" stroke="white" stroke-width="0.3"/>
<path d="M23.7781 19.6271L23.7781 19.6271C22.9807 19.4952 22.1733 19.4272 21.3642 19.4241C18.6037 19.4219 15.9011 20.1822 13.5787 21.6138L13.5 21.6623L13.4213 21.6138C11.0989 20.1822 8.39635 19.4219 5.63579 19.4241C4.82667 19.4272 4.01925 19.4952 3.2219 19.6271L3.22002 19.6274L3.22002 19.6274C3.09254 19.6468 2.97057 19.6902 2.86113 19.7549C2.75169 19.8195 2.65705 19.9041 2.58241 20.0034C2.50778 20.1027 2.45457 20.2149 2.42555 20.3334C2.39671 20.4511 2.39224 20.573 2.41236 20.6923C2.46164 20.931 2.60746 21.143 2.82041 21.2811C3.03423 21.4198 3.2975 21.4719 3.5522 21.4249L3.5548 21.4244L3.55481 21.4244C5.18378 21.1535 6.8527 21.1985 8.46336 21.5566C10.0738 21.9147 11.5937 22.5787 12.9335 23.5098C13.0984 23.6225 13.2964 23.6834 13.5 23.6834C13.7036 23.6834 13.9016 23.6225 14.0665 23.5098C14.0667 23.5097 14.0668 23.5096 14.067 23.5095L14.1516 23.6333C15.4753 22.7133 16.9773 22.057 18.5692 21.703C20.1611 21.3491 21.8106 21.3047 23.4206 21.5724L23.7781 19.6271ZM23.7781 19.6271L23.78 19.6274C23.9075 19.6468 24.0294 19.6902 24.1389 19.7549C24.2483 19.8195 24.343 19.9041 24.4176 20.0034C24.4922 20.1027 24.5454 20.2149 24.5745 20.3334C24.6033 20.4511 24.6078 20.573 24.5876 20.6923L23.7781 19.6271Z" fill="#E5D0D0" stroke="#E5D0D0" stroke-width="0.3"/>
</svg>
