<svg width="20" height="27" viewBox="0 0 20 27" fill="none" xmlns="http://www.w3.org/2000/svg">
<mask id="path-1-inside-1_4_1710" fill="white">
<path d="M0 4.01238C0 2.12093 0 1.1752 0.502103 0.5876C1.00421 0 1.81233 0 3.42857 0H16.5714C18.1877 0 18.9958 0 19.4979 0.5876C20 1.1752 20 2.12093 20 4.01238V22.9876C20 24.8791 20 25.8248 19.4979 26.4124C18.9958 27 18.1877 27 16.5714 27H3.42858C1.81233 27 1.00421 27 0.502103 26.4124C0 25.8248 0 24.8791 0 22.9876V4.01238Z"/>
</mask>
<path d="M5.71429 7.34118C5.38292 7.34118 5.11429 7.60981 5.11429 7.94118C5.11429 8.27255 5.38292 8.54118 5.71429 8.54118V7.34118ZM14.2857 8.54118C14.6171 8.54118 14.8857 8.27255 14.8857 7.94118C14.8857 7.60981 14.6171 7.34118 14.2857 7.34118V8.54118ZM5.71429 13.6941C5.38292 13.6941 5.11429 13.9627 5.11429 14.2941C5.11429 14.6255 5.38292 14.8941 5.71429 14.8941V13.6941ZM14.2857 14.8941C14.6171 14.8941 14.8857 14.6255 14.8857 14.2941C14.8857 13.9627 14.6171 13.6941 14.2857 13.6941V14.8941ZM5.71429 20.0471C5.38292 20.0471 5.11429 20.3157 5.11429 20.6471C5.11429 20.9784 5.38292 21.2471 5.71429 21.2471V20.0471ZM11.4286 21.2471C11.7599 21.2471 12.0286 20.9784 12.0286 20.6471C12.0286 20.3157 11.7599 20.0471 11.4286 20.0471V21.2471ZM5.71429 8.54118H14.2857V7.34118H5.71429V8.54118ZM5.71429 14.8941H14.2857V13.6941H5.71429V14.8941ZM5.71429 21.2471H11.4286V20.0471H5.71429V21.2471ZM3.42857 1.2H16.5714V-1.2H3.42857V1.2ZM18.8 4.01238V22.9876H21.2V4.01238H18.8ZM16.5714 25.8H3.42858V28.2H16.5714V25.8ZM1.2 22.9876V4.01238H-1.2V22.9876H1.2ZM3.42858 25.8C2.58095 25.8 2.08615 25.7965 1.73405 25.7411C1.43827 25.6946 1.41751 25.6365 1.4144 25.6328L-0.410197 27.192C0.0888012 27.7759 0.723156 28.0116 1.36102 28.112C1.94257 28.2035 2.65996 28.2 3.42858 28.2V25.8ZM-1.2 22.9876C-1.2 23.9043 -1.20187 24.6951 -1.1294 25.3259C-1.05489 25.9744 -0.88593 26.6352 -0.410197 27.192L1.4144 25.6328C1.38803 25.602 1.30594 25.4961 1.25492 25.052C1.20187 24.5902 1.2 23.9624 1.2 22.9876H-1.2ZM18.8 22.9876C18.8 23.9624 18.7981 24.5902 18.7451 25.052C18.6941 25.4961 18.612 25.602 18.5856 25.6328L20.4102 27.192C20.8859 26.6352 21.0549 25.9744 21.1294 25.3259C21.2019 24.6951 21.2 23.9043 21.2 22.9876H18.8ZM16.5714 28.2C17.34 28.2 18.0574 28.2035 18.639 28.112C19.2768 28.0116 19.9112 27.7759 20.4102 27.192L18.5856 25.6328C18.5825 25.6365 18.5617 25.6946 18.266 25.7411C17.9138 25.7965 17.4191 25.8 16.5714 25.8V28.2ZM16.5714 1.2C17.4191 1.2 17.9138 1.20347 18.266 1.25887C18.5617 1.30541 18.5825 1.36352 18.5856 1.36716L20.4102 -0.191957C19.9112 -0.775924 19.2768 -1.01161 18.639 -1.11197C18.0574 -1.20347 17.34 -1.2 16.5714 -1.2V1.2ZM21.2 4.01238C21.2 3.09575 21.2019 2.30493 21.1294 1.67409C21.0549 1.02556 20.8859 0.364783 20.4102 -0.191957L18.5856 1.36716C18.612 1.39802 18.6941 1.5039 18.7451 1.94801C18.7981 2.40979 18.8 3.03756 18.8 4.01238H21.2ZM3.42857 -1.2C2.65995 -1.2 1.94256 -1.20347 1.36102 -1.11197C0.723155 -1.01161 0.0888011 -0.775924 -0.410197 -0.191957L1.4144 1.36716C1.41751 1.36352 1.43827 1.30541 1.73405 1.25887C2.08615 1.20347 2.58095 1.2 3.42857 1.2V-1.2ZM1.2 4.01238C1.2 3.03756 1.20187 2.40979 1.25492 1.94801C1.30594 1.5039 1.38803 1.39802 1.4144 1.36716L-0.410197 -0.191957C-0.88593 0.364783 -1.05489 1.02556 -1.1294 1.67409C-1.20187 2.30493 -1.2 3.09575 -1.2 4.01238H1.2Z" fill="#BAD5D1" mask="url(#path-1-inside-1_4_1710)"/>
</svg>
