<svg width="26" height="26" viewBox="0 0 26 26" fill="none" xmlns="http://www.w3.org/2000/svg">
<g clip-path="url(#clip0_253_40)">
<path d="M5.64946 24.9632C3.05302 24.7381 1.01562 22.5595 1.01562 19.9047V11.3596C1.01562 9.77572 1.7547 8.2825 3.01412 7.32192L9.92037 2.05443C11.7392 0.66724 14.2608 0.66724 16.0796 2.05443L16.5468 2.41076C15.2996 2.28767 14.0165 2.62526 12.9673 3.42553L4.75373 9.6901C4.31813 10.0223 4.0625 10.5388 4.0625 11.0866V21.2757C4.0625 22.728 4.67223 24.0377 5.64946 24.9632Z" fill="#E6D0D0"/>
<path d="M19.9062 25.9987H6.09375C2.73366 25.9987 0 23.265 0 19.9049V11.3599C0 9.4713 0.896543 7.65999 2.3982 6.51462L9.30445 1.24713C11.4804 -0.412454 14.5196 -0.412454 16.6956 1.24713L23.6018 6.51462C25.1035 7.65994 26 9.47125 26 11.3599V19.9049C26 23.265 23.2663 25.9987 19.9062 25.9987ZM13 2.03241C12.1307 2.03241 11.2617 2.30896 10.5363 2.86217L3.63005 8.12966C2.62895 8.89326 2.03125 10.1008 2.03125 11.3599V19.9049C2.03125 22.145 3.85369 23.9674 6.09375 23.9674H19.9062C22.1463 23.9674 23.9688 22.145 23.9688 19.9049V11.3599C23.9688 10.1008 23.3711 8.89326 22.37 8.12971L15.4637 2.86223C14.7385 2.30912 13.8691 2.03241 13 2.03241Z" fill="#BB2828"/>
<path d="M16.6562 20.2599H9.39453C7.71448 20.2599 6.34766 18.8931 6.34766 17.213V13.4044C6.34766 11.7244 7.71448 10.3575 9.39453 10.3575H10.8087C11.6738 10.3575 12.4624 10.6984 13.047 11.253C13.6296 10.6983 14.417 10.3575 15.2824 10.3575H16.6562C18.3363 10.3575 19.7031 11.7244 19.7031 13.4044V17.213C19.7031 18.8931 18.3363 20.2599 16.6562 20.2599ZM9.39453 12.3888C8.83452 12.3888 8.37891 12.8444 8.37891 13.4044V17.213C8.37891 17.773 8.83452 18.2287 9.39453 18.2287H16.6562C17.2163 18.2287 17.6719 17.773 17.6719 17.213V13.4044C17.6719 12.8444 17.2163 12.3888 16.6562 12.3888H15.2824C14.6123 12.3888 14.067 12.9361 14.0664 13.609V13.6116V15.4865C14.0664 16.0474 13.6117 16.5021 13.0508 16.5021C12.4899 16.5021 12.0352 16.0474 12.0352 15.4865V13.6127C12.0314 12.9377 11.4816 12.3888 10.8087 12.3888H9.39453Z" fill="#E07575"/>
</g>
<defs>
<clipPath id="clip0_253_40">
<rect width="26" height="26" fill="white"/>
</clipPath>
</defs>
</svg>
