<svg width="19" height="21" viewBox="0 0 19 21" fill="none" xmlns="http://www.w3.org/2000/svg">
<path d="M14.1933 5.5C14.1933 7.98528 12.1786 10 9.69333 10C7.20805 10 5.19333 7.98528 5.19333 5.5C5.19333 3.01472 7.20805 1 9.69333 1C12.1786 1 14.1933 3.01472 14.1933 5.5Z" fill="white" fill-opacity="0.72"/>
<path d="M18.3867 19.503C17.8739 18.0677 16.744 16.7994 15.1722 15.8949C13.6004 14.9903 11.6745 14.5 9.69333 14.5C7.71213 14.5 5.78628 14.9903 4.21448 15.8949C2.64268 16.7994 1.51277 18.0677 1 19.503M14.1933 5.5C14.1933 7.98528 12.1786 10 9.69333 10C7.20805 10 5.19333 7.98528 5.19333 5.5C5.19333 3.01472 7.20805 1 9.69333 1C12.1786 1 14.1933 3.01472 14.1933 5.5Z" stroke="#BB2828" stroke-width="1.2" stroke-linecap="round"/>
</svg>
