<svg width="23" height="21" viewBox="0 0 23 21" fill="none" xmlns="http://www.w3.org/2000/svg">
<path d="M4.86089 0.451904H18.9164C19.9311 0.451836 20.9072 0.848847 21.6447 1.56149C22.3822 2.27414 22.8251 3.2484 22.8826 4.2844L22.8887 4.5144V16.3894C22.8887 17.4271 22.5005 18.4254 21.8037 19.1797C21.1069 19.9339 20.1543 20.3869 19.1413 20.4457L18.9164 20.4519H4.86089C3.84628 20.452 2.8701 20.055 2.13261 19.3423C1.39512 18.6297 0.952226 17.6554 0.894783 16.6194L0.888672 16.3894V4.5144C0.888605 3.47673 1.27679 2.47837 1.9736 1.72412C2.67041 0.969863 3.62302 0.516903 4.63601 0.458154L4.86089 0.451904H18.9164H4.86089ZM18.9164 2.3269H4.86089C4.32411 2.32692 3.80695 2.53337 3.41208 2.90525C3.01722 3.27714 2.77351 3.78728 2.72934 4.3344L2.72201 4.5144V16.3894C2.72203 16.9384 2.92388 17.4673 3.2875 17.8711C3.65112 18.275 4.14993 18.5242 4.68489 18.5694L4.86089 18.5769H18.9164C19.4534 18.5769 19.9708 18.3702 20.3657 17.9981C20.7605 17.6259 21.0041 17.1155 21.048 16.5682L21.0553 16.3894V4.5144C21.0553 3.96522 20.8533 3.43614 20.4894 3.03227C20.1255 2.6284 19.6264 2.37928 19.0912 2.3344L18.9164 2.3269ZM9.50901 7.43315C9.57308 7.30239 9.67997 7.19874 9.81106 7.14027C9.94216 7.0818 10.0892 7.0722 10.2264 7.11315L10.3291 7.1544L15.6849 9.8919C15.7782 9.93953 15.8581 10.0108 15.9169 10.0989C15.9757 10.1871 16.0114 10.2891 16.0208 10.3954C16.0301 10.5016 16.0126 10.6086 15.9701 10.706C15.9276 10.8034 15.8614 10.8881 15.7778 10.9519L15.6849 11.0107L10.3291 13.7494C10.2443 13.7929 10.1507 13.8156 10.0559 13.8157C9.96098 13.8158 9.86738 13.7934 9.78246 13.7501C9.69755 13.7068 9.62366 13.6438 9.56665 13.5663C9.50964 13.4887 9.47107 13.3986 9.45401 13.3032L9.44423 13.1894V7.71315C9.44423 7.61594 9.46641 7.52006 9.50901 7.43315Z" fill="white" fill-opacity="0.7"/>
</svg>
